<?xml version="1.0" encoding="UTF-8"?>
<svg id="Layer_1" data-name="Layer 1" xmlns="http://www.w3.org/2000/svg" xmlns:xlink="http://www.w3.org/1999/xlink" viewBox="0 0 479.51 279.76">
  <defs>
    <style>
      .cls-1 {
        mask: url(#mask);
      }

      .cls-2 {
        fill: #af724f;
      }

      .cls-3 {
        mask: url(#mask-2);
      }

      .cls-4 {
        mask: url(#mask-3);
      }

      .cls-5 {
        mask: url(#mask-4);
      }

      .cls-6 {
        mask: url(#mask-5);
      }

      .cls-7 {
        mask: url(#mask-7);
      }

      .cls-8 {
        mask: url(#mask-6);
      }

      .cls-9 {
        mask: url(#mask-1);
      }

      .cls-10 {
        filter: url(#luminosity-invert-noclip);
      }

      .cls-11 {
        fill: #fff;
      }

      .cls-12 {
        filter: url(#luminosity-invert-noclip-3);
      }

      .cls-13 {
        filter: url(#luminosity-invert-noclip-4);
      }

      .cls-14 {
        filter: url(#luminosity-invert-noclip-2);
      }

      .cls-15 {
        filter: url(#luminosity-invert-noclip-6);
      }

      .cls-16 {
        filter: url(#luminosity-invert-noclip-7);
      }

      .cls-17 {
        filter: url(#luminosity-invert-noclip-8);
      }

      .cls-18 {
        filter: url(#luminosity-invert-noclip-5);
      }
    </style>
    <filter id="luminosity-invert-noclip" x="40.85" y="259.68" width="16.49" height="20.07" color-interpolation-filters="sRGB" filterUnits="userSpaceOnUse">
      <feColorMatrix result="cm" values="-1 0 0 0 1 0 -1 0 0 1 0 0 -1 0 1 0 0 0 1 0"/>
      <feFlood flood-color="#fff" result="bg"/>
      <feBlend in="cm" in2="bg"/>
    </filter>
    <mask id="mask" x="40.85" y="259.68" width="16.49" height="20.07" maskUnits="userSpaceOnUse">
      <g class="cls-10">
        <path class="cls-11" d="M46.39,259.68c.75,2.53.96,5.39,1.4,7.9.35,1.65,1.59,2.76,2.88,3.74,1.48,1.37,2.26,3.52,1.96,5.48-.12.9-.23,1.8-.42,2.7h-.14c-.4-1.66-.28-3.55-1.1-5.05-.58-1.15-1.51-1.87-2.54-2.57-2.11-1.55-2.72-4.27-2.52-6.74.01-1.81.09-3.62.35-5.44h.14Z"/>
      </g>
    </mask>
    <filter id="luminosity-invert-noclip-2" x="0" y="224.89" width="26.69" height="24.3" color-interpolation-filters="sRGB" filterUnits="userSpaceOnUse">
      <feColorMatrix result="cm" values="-1 0 0 0 1 0 -1 0 0 1 0 0 -1 0 1 0 0 0 1 0"/>
      <feFlood flood-color="#fff" result="bg"/>
      <feBlend in="cm" in2="bg"/>
    </filter>
    <mask id="mask-1" x="0" y="224.89" width="26.69" height="24.3" maskUnits="userSpaceOnUse">
      <g class="cls-14">
        <path class="cls-11" d="M3.18,225.64c2.58,2.72,4.7,6.2,6.88,9.07,1.53,1.84,3.8,2.45,6.06,2.86,2.76.76,5.14,2.99,6.03,5.65.44,1.21.88,2.43,1.22,3.69l-.17.09c-1.58-1.84-2.65-4.31-4.66-5.67-1.47-1.08-3.11-1.39-4.88-1.6-3.68-.59-6.2-3.64-7.55-6.89-1.16-2.29-2.23-4.63-3.09-7.1l.17-.1h0Z"/>
      </g>
    </mask>
    <filter id="luminosity-invert-noclip-3" x="446.34" y="158.85" width="14.95" height="19.61" color-interpolation-filters="sRGB" filterUnits="userSpaceOnUse">
      <feColorMatrix result="cm" values="-1 0 0 0 1 0 -1 0 0 1 0 0 -1 0 1 0 0 0 1 0"/>
      <feFlood flood-color="#fff" result="bg"/>
      <feBlend in="cm" in2="bg"/>
    </filter>
    <mask id="mask-2" x="446.34" y="158.85" width="14.95" height="19.61" maskUnits="userSpaceOnUse">
      <g class="cls-12">
        <path class="cls-11" d="M457.67,158.97c-.87,2.41-2.35,4.77-3.44,6.98-.67,1.49-.34,3.07.1,4.58.38,1.92-.26,4.05-1.61,5.41-.61.64-1.22,1.28-1.88,1.87l-.11-.08c.64-1.53,1.82-2.94,2.04-4.58.21-1.23-.1-2.33-.51-3.47-.76-2.43.33-4.9,1.9-6.72,1.05-1.41,2.15-2.78,3.4-4.06l.11.07h0Z"/>
      </g>
    </mask>
    <filter id="luminosity-invert-noclip-4" x="455.83" y="221.65" width="23.68" height="27.25" color-interpolation-filters="sRGB" filterUnits="userSpaceOnUse">
      <feColorMatrix result="cm" values="-1 0 0 0 1 0 -1 0 0 1 0 0 -1 0 1 0 0 0 1 0"/>
      <feFlood flood-color="#fff" result="bg"/>
      <feBlend in="cm" in2="bg"/>
    </filter>
    <mask id="mask-3" x="455.83" y="221.65" width="23.68" height="27.25" maskUnits="userSpaceOnUse">
      <g class="cls-13">
        <path class="cls-11" d="M478.1,224.12c-2.47,2.82-5.75,5.24-8.41,7.68-1.7,1.69-2.1,4-2.3,6.29-.51,2.82-2.51,5.39-5.09,6.51-1.17.54-2.34,1.09-3.56,1.55l-.1-.17c1.69-1.74,4.05-3.03,5.23-5.16.94-1.57,1.1-3.23,1.15-5.01.26-3.72,3.06-6.51,6.18-8.14,2.18-1.36,4.41-2.64,6.8-3.72l.12.16h0Z"/>
      </g>
    </mask>
    <filter id="luminosity-invert-noclip-5" x="393.99" y="117.1" width="23.68" height="27.25" color-interpolation-filters="sRGB" filterUnits="userSpaceOnUse">
      <feColorMatrix result="cm" values="-1 0 0 0 1 0 -1 0 0 1 0 0 -1 0 1 0 0 0 1 0"/>
      <feFlood flood-color="#fff" result="bg"/>
      <feBlend in="cm" in2="bg"/>
    </filter>
    <mask id="mask-4" x="393.99" y="117.1" width="23.68" height="27.25" maskUnits="userSpaceOnUse">
      <g class="cls-18">
        <path class="cls-11" d="M416.26,119.57c-2.47,2.82-5.75,5.24-8.41,7.68-1.7,1.69-2.1,4-2.3,6.29-.51,2.82-2.51,5.39-5.09,6.51-1.17.54-2.34,1.09-3.56,1.55l-.1-.17c1.69-1.74,4.05-3.03,5.23-5.16.94-1.57,1.1-3.23,1.15-5.01.26-3.72,3.06-6.51,6.18-8.14,2.18-1.36,4.41-2.64,6.8-3.72l.12.16h0Z"/>
      </g>
    </mask>
    <filter id="luminosity-invert-noclip-6" x="441.97" y="0" width="23.68" height="27.25" color-interpolation-filters="sRGB" filterUnits="userSpaceOnUse">
      <feColorMatrix result="cm" values="-1 0 0 0 1 0 -1 0 0 1 0 0 -1 0 1 0 0 0 1 0"/>
      <feFlood flood-color="#fff" result="bg"/>
      <feBlend in="cm" in2="bg"/>
    </filter>
    <mask id="mask-5" x="441.97" y="0" width="23.68" height="27.25" maskUnits="userSpaceOnUse">
      <g class="cls-15">
        <path class="cls-11" d="M464.24,2.47c-2.47,2.82-5.75,5.24-8.41,7.68-1.7,1.69-2.1,4-2.3,6.29-.51,2.82-2.51,5.39-5.09,6.51-1.17.54-2.34,1.09-3.56,1.55l-.1-.17c1.69-1.74,4.05-3.03,5.23-5.16.94-1.57,1.1-3.23,1.15-5.01.26-3.72,3.06-6.51,6.18-8.14,2.18-1.36,4.41-2.64,6.8-3.72l.12.16h0Z"/>
      </g>
    </mask>
    <filter id="luminosity-invert-noclip-7" x="422.65" y="59.26" width="23.61" height="18.53" color-interpolation-filters="sRGB" filterUnits="userSpaceOnUse">
      <feColorMatrix result="cm" values="-1 0 0 0 1 0 -1 0 0 1 0 0 -1 0 1 0 0 0 1 0"/>
      <feFlood flood-color="#fff" result="bg"/>
      <feBlend in="cm" in2="bg"/>
    </filter>
    <mask id="mask-6" x="422.65" y="59.26" width="23.61" height="18.53" maskUnits="userSpaceOnUse">
      <g class="cls-16">
        <path class="cls-11" d="M446.25,66.63c-2.99.56-6.3.47-9.22.68-1.93.23-3.35,1.51-4.62,2.86-1.74,1.54-4.3,2.18-6.51,1.61-1.02-.24-2.04-.48-3.05-.8l.02-.16c1.95-.26,4.11.1,5.93-.67,1.39-.53,2.32-1.51,3.24-2.62,2.03-2.24,5.22-2.62,8.03-2.1,2.07.23,4.14.53,6.2,1.03v.16h0Z"/>
      </g>
    </mask>
    <filter id="luminosity-invert-noclip-8" x="400.89" y="36.47" width="23.61" height="18.53" color-interpolation-filters="sRGB" filterUnits="userSpaceOnUse">
      <feColorMatrix result="cm" values="-1 0 0 0 1 0 -1 0 0 1 0 0 -1 0 1 0 0 0 1 0"/>
      <feFlood flood-color="#fff" result="bg"/>
      <feBlend in="cm" in2="bg"/>
    </filter>
    <mask id="mask-7" x="400.89" y="36.47" width="23.61" height="18.53" maskUnits="userSpaceOnUse">
      <g class="cls-17">
        <path class="cls-11" d="M424.5,43.85c-2.99.56-6.3.47-9.22.68-1.93.23-3.35,1.51-4.62,2.86-1.74,1.54-4.3,2.18-6.51,1.61-1.02-.24-2.04-.48-3.05-.8l.02-.16c1.95-.26,4.11.1,5.93-.67,1.39-.53,2.32-1.51,3.24-2.62,2.03-2.24,5.22-2.62,8.03-2.1,2.07.23,4.14.53,6.2,1.03v.16h0Z"/>
      </g>
    </mask>
  </defs>
  <g class="cls-1">
    <ellipse class="cls-2" cx="49.1" cy="270.09" rx="7.63" ry="10.16" transform="translate(-119.89 53.75) rotate(-27.69)"/>
  </g>
  <g class="cls-9">
    <ellipse class="cls-2" cx="13.35" cy="237.04" rx="10.84" ry="14.43" transform="translate(-188.08 111.36) rotate(-54.82)"/>
  </g>
  <g class="cls-3">
    <ellipse class="cls-2" cx="453.81" cy="168.65" rx="9.85" ry="7.41" transform="translate(218.93 591.99) rotate(-81.36)"/>
  </g>
  <g class="cls-4">
    <ellipse class="cls-2" cx="467.67" cy="235.27" rx="14.43" ry="10.84" transform="translate(30.09 522.65) rotate(-60)"/>
  </g>
  <g class="cls-5">
    <ellipse class="cls-2" cx="405.83" cy="130.72" rx="14.43" ry="10.84" transform="translate(89.71 416.82) rotate(-60)"/>
  </g>
  <g class="cls-6">
    <ellipse class="cls-2" cx="453.81" cy="13.62" rx="14.43" ry="10.84" transform="translate(215.11 399.82) rotate(-60)"/>
  </g>
  <g class="cls-8">
    <ellipse class="cls-2" cx="434" cy="68.52" rx="11.71" ry="8.8" transform="translate(5.69 166.52) rotate(-21.86)"/>
  </g>
  <g class="cls-7">
    <ellipse class="cls-2" cx="412.25" cy="45.74" rx="11.71" ry="8.8" transform="translate(12.61 156.78) rotate(-21.86)"/>
  </g>
</svg>