<?xml version="1.0" encoding="UTF-8"?>
<svg id="Layer_1" data-name="Layer 1" xmlns="http://www.w3.org/2000/svg" xmlns:xlink="http://www.w3.org/1999/xlink" viewBox="0 0 559.06 162.77">
  <defs>
    <style>
      .cls-1 {
        fill: #4b2b20;
      }

      .cls-2 {
        fill: none;
        stroke: #ad714e;
        stroke-miterlimit: 10;
        stroke-width: 1.73px;
      }

      .cls-3 {
        fill: #ad714e;
      }

      .cls-4 {
        clip-path: url(#clippath);
      }
    </style>
    <clipPath id="clippath">
      <path class="cls-3" d="M166.2,151.78l12.04-45.01,30.88-31.4v-39.78l-17.9-18.45c1.93-6.39.69-11.08-.35-13.48-.47-1.08-1.66-1.64-2.8-1.33l-8.87,2.43-4.11-4.23-23.55-.52-7.33,7.33-16.75,3.66,6.28,23.03,16.22.52,10.99,10.47-70.88,16.99c-3.61.87-6.89,2.76-9.45,5.46l-9.08,9.6-42.6,42.75c-2.07,2.08-4.82,3.22-7.75,3.22h-.01c-2.93,0-5.68-1.14-7.75-3.21-4.27-4.27-4.27-11.23,0-15.5l7.66-7.66c2-2,2-5.24,0-7.25-2-2-5.24-2-7.25,0l-7.66,7.67c-8.27,8.27-8.27,21.72,0,29.99,4.01,4.01,9.33,6.21,15,6.21h.02c5.67,0,11-2.22,15-6.24l28.31-28.41c-2.33,10.06-7.74,22.39-20.28,29.08l-9.42,34.54,30.36-.52s-3.14-10.99-14.13-8.9l3.66-15.18s35.59-2.62,52.86-31.4l40.3.52.52,55.48h30.88s-1.05-10.47-13.08-10.47Z"/>
    </clipPath>
  </defs>
  <g>
    <g>
      <path class="cls-3" d="M166.2,151.78l12.04-45.01,30.88-31.4v-39.78l-17.9-18.45c1.93-6.39.69-11.08-.35-13.48-.47-1.08-1.66-1.64-2.8-1.33l-8.87,2.43-4.11-4.23-23.55-.52-7.33,7.33-16.75,3.66,6.28,23.03,16.22.52,10.99,10.47-70.88,16.99c-3.61.87-6.89,2.76-9.45,5.46l-9.08,9.6-42.6,42.75c-2.07,2.08-4.82,3.22-7.75,3.22h-.01c-2.93,0-5.68-1.14-7.75-3.21-4.27-4.27-4.27-11.23,0-15.5l7.66-7.66c2-2,2-5.24,0-7.25-2-2-5.24-2-7.25,0l-7.66,7.67c-8.27,8.27-8.27,21.72,0,29.99,4.01,4.01,9.33,6.21,15,6.21h.02c5.67,0,11-2.22,15-6.24l28.31-28.41c-2.33,10.06-7.74,22.39-20.28,29.08l-9.42,34.54,30.36-.52s-3.14-10.99-14.13-8.9l3.66-15.18s35.59-2.62,52.86-31.4l40.3.52.52,55.48h30.88s-1.05-10.47-13.08-10.47Z"/>
      <g class="cls-4">
        <path class="cls-1" d="M113.59,74.59l-9.14-2.26c-1.28-.32-2.56.47-2.87,1.75l-2.26,9.14c-.31,1.27.46,2.56,1.73,2.87l9.14,2.26c1.28.32,2.57-.46,2.88-1.73l2.26-9.14c.32-1.28-.46-2.57-1.74-2.89ZM111.26,82.2l-4.12,2.5c-.59.34-1.33.16-1.68-.41l-2.5-4.13c-.36-.58-.17-1.33.41-1.68l4.13-2.5c.57-.35,1.32-.16,1.68.41l2.48,4.13c.36.58.17,1.33-.41,1.68Z"/>
        <path class="cls-1" d="M170.6,60.01l-5.97-7.27c-.84-1.02-2.33-1.16-3.35-.32l-7.27,5.97c-1.01.83-1.16,2.32-.33,3.34l5.97,7.27c.84,1.02,2.34,1.17,3.35.34l7.27-5.97c1.02-.84,1.17-2.34.33-3.36ZM164.18,64.72l-4.8-.46c-.68-.08-1.16-.67-1.1-1.33l.47-4.8c.06-.68.66-1.17,1.33-1.1l4.8.47c.67.07,1.15.66,1.1,1.33l-.48,4.79c-.06.68-.66,1.17-1.33,1.1Z"/>
        <path class="cls-1" d="M181.35,46.1l-2.57-8.39c-.36-1.18-1.6-1.82-2.78-1.46l-8.39,2.57c-1.16.36-1.83,1.59-1.47,2.76l2.57,8.39c.36,1.18,1.6,1.84,2.77,1.48l8.39-2.57c1.18-.36,1.83-1.6,1.47-2.78ZM174.15,47.89l-3.97-2.1c-.56-.3-.77-.99-.47-1.54l2.11-3.98c.29-.56.98-.78,1.54-.47l3.98,2.11c.55.29.76.98.47,1.54l-2.11,3.97c-.29.56-.98.78-1.54.47Z"/>
        <path class="cls-1" d="M108.8,59.97l-5.97-7.27c-.84-1.02-2.33-1.16-3.35-.32l-7.27,5.97c-1.01.83-1.16,2.32-.33,3.34l5.97,7.27c.84,1.02,2.34,1.17,3.35.34l7.27-5.97c1.02-.84,1.17-2.34.33-3.36ZM102.38,64.67l-4.8-.46c-.68-.08-1.16-.67-1.1-1.33l.47-4.8c.06-.68.66-1.17,1.33-1.1l4.8.47c.67.07,1.15.66,1.1,1.33l-.48,4.79c-.06.68-.66,1.17-1.33,1.1Z"/>
        <path class="cls-1" d="M9.1,108.35l-7.82-.9c-1.1-.13-2.07.66-2.2,1.76l-.9,7.82c-.13,1.08.65,2.07,1.75,2.2l7.82.9c1.1.13,2.09-.66,2.21-1.74l.9-7.82c.13-1.1-.66-2.09-1.75-2.21ZM7.98,114.92l-3.15,2.51c-.45.35-1.09.27-1.44-.17l-2.51-3.17c-.36-.44-.29-1.09.17-1.44l3.17-2.51c.44-.35,1.08-.28,1.44.17l2.5,3.16c.36.44.29,1.09-.17,1.44Z"/>
        <path class="cls-1" d="M183.27,79.23l-2.18-9.15c-.3-1.28-1.59-2.06-2.87-1.76l-9.15,2.18c-1.27.3-2.06,1.57-1.76,2.86l2.18,9.15c.3,1.28,1.59,2.07,2.86,1.77l9.15-2.18c1.28-.3,2.07-1.59,1.77-2.87ZM175.44,80.65l-4.11-2.52c-.57-.36-.75-1.11-.4-1.68l2.53-4.11c.35-.58,1.11-.76,1.68-.4l4.11,2.53c.57.35.75,1.1.4,1.68l-2.53,4.1c-.35.58-1.11.76-1.68.4Z"/>
        <path class="cls-1" d="M99.65,90.34l-7.03.15c-.98.02-1.75.84-1.73,1.82l.15,7.03c.02.97.83,1.75,1.81,1.73l7.03-.15c.98-.02,1.76-.84,1.74-1.81l-.15-7.03c-.02-.98-.84-1.76-1.82-1.74ZM99.45,96.28l-2.48,2.6c-.36.36-.93.37-1.29.03l-2.6-2.49c-.37-.35-.38-.93-.03-1.29l2.49-2.6c.35-.36.92-.37,1.29-.03l2.59,2.49c.37.35.38.93.03,1.29Z"/>
        <path class="cls-1" d="M122.14,60.45l-7.03.15c-.98.02-1.75.84-1.73,1.82l.15,7.03c.02.97.83,1.75,1.81,1.73l7.03-.15c.98-.02,1.76-.84,1.74-1.81l-.15-7.03c-.02-.98-.84-1.76-1.82-1.74ZM121.95,66.39l-2.48,2.6c-.36.36-.93.37-1.29.03l-2.6-2.49c-.37-.35-.38-.93-.03-1.29l2.49-2.6c.35-.36.92-.37,1.29-.03l2.59,2.49c.37.35.38.93.03,1.29Z"/>
        <path class="cls-1" d="M90.26,63.89l-8,.17c-1.12.02-2,.95-1.97,2.07l.17,8c.02,1.11.94,2,2.06,1.97l8-.17c1.12-.02,2.01-.95,1.99-2.06l-.17-8c-.02-1.12-.95-2.01-2.07-1.98ZM90.03,70.65l-2.83,2.97c-.41.41-1.06.43-1.47.03l-2.97-2.84c-.42-.39-.44-1.06-.03-1.47l2.84-2.97c.39-.41,1.04-.43,1.47-.03l2.95,2.84c.42.39.44,1.06.03,1.47Z"/>
        <path class="cls-1" d="M149.17,63.44l-5.6,1.77c-.78.25-1.21,1.08-.96,1.86l1.77,5.6c.25.78,1.07,1.21,1.86.96l5.6-1.77c.78-.25,1.22-1.08.97-1.86l-1.77-5.6c-.25-.78-1.08-1.22-1.87-.97ZM150.41,68.25l-1.38,2.67c-.2.37-.66.52-1.03.32l-2.67-1.39c-.38-.19-.53-.65-.32-1.03l1.39-2.67c.19-.37.65-.52,1.03-.32l2.66,1.39c.38.19.53.65.32,1.03Z"/>
        <path class="cls-1" d="M145.88,81.53l-3.84,3.06c-.54.43-.62,1.21-.19,1.75l3.06,3.84c.42.53,1.2.63,1.74.2l3.84-3.06c.54-.43.63-1.21.2-1.74l-3.06-3.84c-.43-.54-1.21-.63-1.75-.2ZM148.29,84.92l-.28,2.5c-.04.35-.36.6-.7.56l-2.5-.28c-.35-.03-.61-.35-.56-.7l.28-2.5c.04-.35.35-.6.7-.56l2.5.29c.35.03.61.35.56.7Z"/>
        <path class="cls-1" d="M160.29,80.89l-5.6,1.77c-.78.25-1.61-.18-1.86-.96l-1.77-5.6c-.25-.78.17-1.61.96-1.86l5.6-1.78c.78-.24,1.61.2,1.86.98l1.78,5.6c.24.78-.2,1.61-.98,1.86Z"/>
        <path class="cls-1" d="M137.12,66.77l-5.92-1.37c-.83-.19-1.65.33-1.84,1.15l-1.37,5.92c-.19.82.32,1.64,1.15,1.84l5.92,1.37c.83.19,1.65-.32,1.84-1.14l1.37-5.92c.19-.83-.32-1.65-1.15-1.85ZM135.69,71.71l-2.63,1.65c-.38.23-.86.12-1.09-.25l-1.65-2.64c-.24-.37-.12-.86.25-1.09l2.64-1.65c.37-.23.85-.12,1.09.25l1.64,2.64c.24.37.12.86-.25,1.09Z"/>
        <path class="cls-1" d="M185.9,55.19l-5.92-1.37c-.83-.19-1.65.33-1.84,1.15l-1.37,5.92c-.19.82.32,1.64,1.15,1.84l5.92,1.37c.83.19,1.65-.32,1.84-1.14l1.37-5.92c.19-.83-.32-1.65-1.15-1.85ZM184.47,60.13l-2.63,1.65c-.38.23-.86.12-1.09-.25l-1.65-2.64c-.24-.37-.12-.86.25-1.09l2.64-1.65c.37-.23.85-.12,1.09.25l1.64,2.64c.24.37.12.86-.25,1.09Z"/>
        <circle class="cls-1" cx="92.19" cy="83.67" r="3.01"/>
        <circle class="cls-1" cx="50.86" cy="98.16" r="3.01"/>
        <circle class="cls-1" cx="189.54" cy="47.93" r="3.01"/>
        <circle class="cls-1" cx="29.21" cy="121.74" r="4.45"/>
        <circle class="cls-1" cx="72.33" cy="87" r="3.01"/>
        <circle class="cls-1" cx="23.89" cy="132.15" r="5.38"/>
        <circle class="cls-1" cx="16.65" cy="122.21" r="3.01"/>
        <circle class="cls-1" cx="7.35" cy="126.07" r="3.01"/>
        <circle class="cls-1" cx="141.13" cy="78.23" r="3.01"/>
        <circle class="cls-1" cx="150.29" cy="48.75" r="3.01"/>
        <circle class="cls-1" cx="74.05" cy="75.41" r="3.01"/>
        <circle class="cls-1" cx="3.34" cy="102.46" r="3.01"/>
        <circle class="cls-1" cx="144.51" cy="56.57" r="4.45"/>
        <circle class="cls-1" cx="43.13" cy="105.89" r="4.45"/>
        <circle class="cls-1" cx="110.11" cy="97.09" r="3.01"/>
        <rect class="cls-1" x="119.99" y="74.44" width="4.72" height="4.72" rx=".55" ry=".55" transform="translate(-17.71 41.44) rotate(-17.95)"/>
        <rect class="cls-1" x="126.75" y="79.16" width="4.72" height="4.72" rx=".55" ry=".55" transform="translate(-22.2 102.07) rotate(-40)"/>
        <rect class="cls-1" x="126.19" y="52.46" width="10.14" height="10.14" rx="1.18" ry="1.18" transform="translate(103.44 198.12) rotate(-102.48)"/>
        <rect class="cls-1" x="125.21" y="7.79" width="11.3" height="11.3" rx="1.31" ry="1.31" transform="translate(201.16 124.63) rotate(-128.16)"/>
        <rect class="cls-1" x="74.21" y="95.05" width="10.14" height="10.14" rx="1.18" ry="1.18" transform="translate(60.68 -26.23) rotate(30)"/>
        <rect class="cls-1" x="117.26" y="81.91" width="7.6" height="7.6" rx=".88" ry=".88" transform="translate(-10.43 17.06) rotate(-7.73)"/>
        <rect class="cls-1" x="78.4" y="80.19" width="7.6" height="7.6" rx=".88" ry=".88" transform="translate(-10.55 11.82) rotate(-7.73)"/>
        <rect class="cls-1" x="57.79" y="83.63" width="7.6" height="7.6" rx=".88" ry=".88" transform="translate(-11.2 9.08) rotate(-7.73)"/>
        <rect class="cls-1" x="38.32" y="115.25" width="7.91" height="7.91" rx=".92" ry=".92" transform="translate(-47.17 29.78) rotate(-25.48)"/>
        <rect class="cls-1" x="7.71" y="86.5" width="16.16" height="16.16" rx="1.88" ry="1.88" transform="translate(-12.58 2.98) rotate(-7.73)"/>
        <polyline class="cls-2" points="140.68 8.1 127.47 10.99 131.6 25.95"/>
        <path class="cls-2" d="M7.21,96.08l6.7-6.71c1.92-1.92,5-1.99,7.01-.18h0c2.16,1.95,2.25,5.3.2,7.36l-7.67,7.76"/>
      </g>
    </g>
    <path class="cls-3" d="M226.39,153.35l-17.27-68.04-25.12,24.08,29.83,53.39h28.26s1.05-13.61-15.7-9.42Z"/>
    <path class="cls-3" d="M133.55,112.41l-20.86-.89c-.57-.02-1.11.26-1.42.74-7.41,11.19-19.94,18.3-24.2,20.49-.81.41-1.11,1.4-.69,2.2l13.94,26.44c.28.53.84.87,1.44.87h21.53c1.11,0,1.89-1.09,1.55-2.15-3.47-10.88-14.64-6.23-14.64-6.23l-7.52-14.57c-.45-.88-.02-1.94.91-2.28,18.75-6.81,27.89-17.34,31.23-22.06.74-1.05.02-2.51-1.27-2.56Z"/>
  </g>
  <g>
    <path class="cls-1" d="M285.72,73.59c-3.89,0-7.49-.66-10.8-1.98-3.31-1.32-6.19-3.18-8.63-5.57-2.44-2.39-4.34-5.2-5.68-8.41-1.35-3.21-2.02-6.74-2.02-10.58s.67-7.36,2.02-10.58c1.35-3.21,3.25-6.02,5.72-8.41,2.47-2.39,5.34-4.25,8.63-5.57,3.29-1.32,6.88-1.98,10.76-1.98,3.69,0,7.14.6,10.35,1.79,3.21,1.2,5.97,3.02,8.26,5.46l-2.39,2.47c-2.24-2.19-4.72-3.78-7.44-4.75-2.72-.97-5.59-1.46-8.63-1.46-3.34,0-6.44.57-9.31,1.72-2.87,1.15-5.36,2.77-7.47,4.86-2.12,2.09-3.76,4.54-4.93,7.33-1.17,2.79-1.76,5.83-1.76,9.12s.59,6.33,1.76,9.12c1.17,2.79,2.81,5.23,4.93,7.33,2.12,2.09,4.61,3.71,7.47,4.86,2.86,1.15,5.97,1.72,9.31,1.72,3.04,0,5.92-.49,8.63-1.46,2.72-.97,5.2-2.58,7.44-4.82l2.39,2.47c-2.29,2.44-5.05,4.27-8.26,5.49-3.21,1.22-6.67,1.83-10.35,1.83Z"/>
    <path class="cls-1" d="M338.19,73.59c-3.89,0-7.49-.66-10.8-1.98-3.31-1.32-6.2-3.19-8.67-5.61-2.47-2.42-4.37-5.23-5.72-8.45-1.35-3.21-2.02-6.71-2.02-10.5s.67-7.29,2.02-10.5c1.35-3.21,3.25-6.03,5.72-8.45,2.47-2.42,5.36-4.29,8.67-5.61,3.31-1.32,6.91-1.98,10.8-1.98s7.49.66,10.8,1.98c3.31,1.32,6.19,3.18,8.63,5.57,2.44,2.39,4.35,5.2,5.72,8.41,1.37,3.21,2.06,6.74,2.06,10.58s-.69,7.36-2.06,10.58c-1.37,3.21-3.28,6.02-5.72,8.41-2.44,2.39-5.32,4.25-8.63,5.57-3.31,1.32-6.91,1.98-10.8,1.98ZM338.19,70.08c3.34,0,6.43-.57,9.27-1.72,2.84-1.15,5.31-2.77,7.4-4.86,2.09-2.09,3.72-4.53,4.9-7.33,1.17-2.79,1.76-5.83,1.76-9.12s-.59-6.39-1.76-9.16c-1.17-2.77-2.8-5.2-4.9-7.29-2.09-2.09-4.56-3.71-7.4-4.86-2.84-1.15-5.93-1.72-9.27-1.72s-6.43.57-9.27,1.72c-2.84,1.15-5.32,2.77-7.44,4.86-2.12,2.09-3.76,4.52-4.93,7.29-1.17,2.77-1.76,5.82-1.76,9.16s.59,6.33,1.76,9.12c1.17,2.79,2.81,5.23,4.93,7.33,2.12,2.09,4.6,3.71,7.44,4.86,2.84,1.15,5.93,1.72,9.27,1.72Z"/>
    <path class="cls-1" d="M382.44,73.21h-3.81V20.89h34.98v3.44h-31.17v48.88ZM381.99,46.68h28.33v3.44h-28.33v-3.44Z"/>
    <path class="cls-1" d="M429.6,73.21h-3.81V20.89h34.98v3.44h-31.17v48.88ZM429.16,46.68h28.33v3.44h-28.33v-3.44Z"/>
    <path class="cls-1" d="M476.77,69.78h32.29v3.44h-36.1V20.89h34.98v3.44h-31.17v45.45ZM476.32,44.96h28.33v3.36h-28.33v-3.36Z"/>
    <path class="cls-1" d="M526.77,69.78h32.29v3.44h-36.1V20.89h34.98v3.44h-31.17v45.45ZM526.33,44.96h28.33v3.36h-28.33v-3.36Z"/>
    <path class="cls-1" d="M305.57,141.73v-52.32h3.81v48.88h30.12v3.44h-33.93Z"/>
    <path class="cls-1" d="M346.96,141.73l24.07-52.32h3.81l24.07,52.32h-4.11l-22.72-49.93h1.64l-22.65,49.93h-4.11ZM355.78,127.01l1.27-3.21h31.32l1.27,3.21h-33.86Z"/>
    <path class="cls-1" d="M408.4,141.73v-52.32h3.21l37.3,47.61h-1.72v-47.61h3.81v52.32h-3.14l-37.37-47.61h1.72v47.61h-3.81Z"/>
    <path class="cls-1" d="M469.25,141.73v-52.32h20.71c5.53,0,10.39,1.12,14.58,3.36,4.19,2.24,7.44,5.33,9.75,9.27,2.32,3.94,3.48,8.45,3.48,13.53s-1.16,9.59-3.48,13.53c-2.32,3.94-5.57,7.03-9.75,9.27-4.19,2.24-9.04,3.36-14.58,3.36h-20.71ZM473.06,138.29h16.59c4.93,0,9.22-.97,12.86-2.92,3.64-1.94,6.45-4.62,8.45-8.03,1.99-3.41,2.99-7.34,2.99-11.77s-1-8.36-2.99-11.77c-1.99-3.41-4.81-6.09-8.45-8.04-3.64-1.94-7.92-2.92-12.86-2.92h-16.59v45.45Z"/>
    <path class="cls-3" d="M287.67,119.38l-3.3-10.86c-.46-1.49-2.06-2.37-3.56-1.92l-10.85,3.29c-1.53.47-2.37,2.07-1.91,3.58l3.28,10.85c.46,1.51,2.06,2.37,3.56,1.91l10.85-3.28c1.51-.46,2.37-2.06,1.93-3.56ZM282.77,116.19l-2.8,4.68c-.4.65-1.25.86-1.89.47l-4.68-2.83c-.66-.39-.86-1.23-.47-1.88l2.82-4.68c.39-.65,1.22-.87,1.89-.47l4.68,2.82c.65.39.86,1.23.46,1.89Z"/>
    <path class="cls-3" d="M548.01,127.02l7.35-8.66c1.01-1.2.88-3.01-.32-4.03l-8.64-7.34c-1.23-1.03-3.02-.87-4.04.33l-7.35,8.63c-1.02,1.2-.88,3.01.33,4.03l8.63,7.35c1.2,1.02,3.01.88,4.04-.3ZM548.04,121.18l-5.46.18c-.76.02-1.4-.58-1.42-1.34l-.16-5.47c-.03-.76.57-1.39,1.33-1.42l5.46-.17c.75-.03,1.39.55,1.42,1.34l.17,5.46c.03.75-.57,1.39-1.34,1.41Z"/>
  </g>
</svg>