<?xml version="1.0" encoding="UTF-8"?>
<svg id="Layer_1" data-name="Layer 1" xmlns="http://www.w3.org/2000/svg" xmlns:xlink="http://www.w3.org/1999/xlink" viewBox="0 0 243.89 513.69">
  <defs>
    <style>
      .cls-1 {
        fill: url(#linear-gradient-8);
      }

      .cls-2 {
        fill: url(#linear-gradient-7);
      }

      .cls-3 {
        fill: url(#linear-gradient-5);
      }

      .cls-4 {
        fill: url(#linear-gradient-6);
      }

      .cls-5 {
        fill: url(#linear-gradient-9);
      }

      .cls-6 {
        fill: url(#linear-gradient-4);
      }

      .cls-7 {
        fill: url(#linear-gradient-3);
      }

      .cls-8 {
        fill: url(#linear-gradient-2);
      }

      .cls-9 {
        fill: url(#linear-gradient);
      }

      .cls-10 {
        fill: url(#linear-gradient-10);
      }

      .cls-11 {
        fill: url(#linear-gradient-11);
      }

      .cls-12 {
        fill: url(#linear-gradient-12);
      }

      .cls-13 {
        fill: url(#linear-gradient-13);
      }

      .cls-14 {
        fill: url(#linear-gradient-19);
      }

      .cls-15 {
        fill: url(#linear-gradient-14);
      }

      .cls-16 {
        fill: url(#linear-gradient-21);
      }

      .cls-17 {
        fill: url(#linear-gradient-20);
      }

      .cls-18 {
        fill: url(#linear-gradient-22);
      }

      .cls-19 {
        fill: url(#linear-gradient-23);
      }

      .cls-20 {
        fill: url(#linear-gradient-25);
      }

      .cls-21 {
        fill: url(#linear-gradient-15);
      }

      .cls-22 {
        fill: url(#linear-gradient-16);
      }

      .cls-23 {
        fill: url(#linear-gradient-17);
      }

      .cls-24 {
        fill: url(#linear-gradient-18);
      }

      .cls-25 {
        fill: url(#linear-gradient-24);
      }
    </style>
    <linearGradient id="linear-gradient" x1="173.75" y1="447.6" x2="232.39" y2="561.74" gradientUnits="userSpaceOnUse">
      <stop offset="0" stop-color="#af724f" stop-opacity="0"/>
      <stop offset="1" stop-color="#af724f"/>
    </linearGradient>
    <linearGradient id="linear-gradient-2" x1="41.81" y1="190.79" x2="168.3" y2="437" xlink:href="#linear-gradient"/>
    <linearGradient id="linear-gradient-3" x1="110.37" y1="349.98" x2="169.01" y2="464.12" xlink:href="#linear-gradient"/>
    <linearGradient id="linear-gradient-4" x1="31.35" y1="196.16" x2="157.84" y2="442.37" xlink:href="#linear-gradient"/>
    <linearGradient id="linear-gradient-5" x1="36.81" y1="193.35" x2="163.31" y2="439.56" xlink:href="#linear-gradient"/>
    <linearGradient id="linear-gradient-6" x1="110.37" y1="349.98" x2="169.01" y2="464.12" xlink:href="#linear-gradient"/>
    <linearGradient id="linear-gradient-7" x1="31.35" y1="196.16" x2="157.84" y2="442.37" xlink:href="#linear-gradient"/>
    <linearGradient id="linear-gradient-8" x1="41.81" y1="190.79" x2="168.3" y2="437" xlink:href="#linear-gradient"/>
    <linearGradient id="linear-gradient-9" x1="3.21" y1="210.62" x2="129.7" y2="456.83" xlink:href="#linear-gradient"/>
    <linearGradient id="linear-gradient-10" x1="-9.15" y1="216.97" x2="117.35" y2="463.18" xlink:href="#linear-gradient"/>
    <linearGradient id="linear-gradient-11" x1="-15.91" y1="220.44" x2="110.59" y2="466.65" xlink:href="#linear-gradient"/>
    <linearGradient id="linear-gradient-12" x1="-22.31" y1="223.73" x2="104.18" y2="469.94" xlink:href="#linear-gradient"/>
    <linearGradient id="linear-gradient-13" x1="-24.05" y1="224.62" x2="102.45" y2="470.83" xlink:href="#linear-gradient"/>
    <linearGradient id="linear-gradient-14" x1="-25.58" y1="225.41" x2="100.92" y2="471.62" xlink:href="#linear-gradient"/>
    <linearGradient id="linear-gradient-15" x1="-17.74" y1="221.38" x2="108.75" y2="467.59" xlink:href="#linear-gradient"/>
    <linearGradient id="linear-gradient-16" x1="-8.43" y1="216.6" x2="118.07" y2="462.81" xlink:href="#linear-gradient"/>
    <linearGradient id="linear-gradient-17" x1="65.95" y1="178.38" x2="192.44" y2="424.6" xlink:href="#linear-gradient"/>
    <linearGradient id="linear-gradient-18" x1="74.02" y1="174.24" x2="200.52" y2="420.45" xlink:href="#linear-gradient"/>
    <linearGradient id="linear-gradient-19" x1="76.82" y1="172.8" x2="203.31" y2="419.01" xlink:href="#linear-gradient"/>
    <linearGradient id="linear-gradient-20" x1="79.44" y1="171.45" x2="205.94" y2="417.66" xlink:href="#linear-gradient"/>
    <linearGradient id="linear-gradient-21" x1="77.69" y1="172.35" x2="204.19" y2="418.56" xlink:href="#linear-gradient"/>
    <linearGradient id="linear-gradient-22" x1="75.58" y1="173.44" x2="202.07" y2="419.65" xlink:href="#linear-gradient"/>
    <linearGradient id="linear-gradient-23" x1="64.43" y1="179.16" x2="190.93" y2="425.37" xlink:href="#linear-gradient"/>
    <linearGradient id="linear-gradient-24" x1="51.85" y1="185.63" x2="178.34" y2="431.84" xlink:href="#linear-gradient"/>
    <linearGradient id="linear-gradient-25" x1="58.92" y1="182" x2="185.41" y2="428.21" xlink:href="#linear-gradient"/>
  </defs>
  <g>
    <line class="cls-9" x1="203.07" y1="504.67" x2="203.08" y2="504.68"/>
    <polygon class="cls-8" points="202.13 505.32 204.02 504.04 204.03 504.05 202.13 505.32"/>
  </g>
  <g>
    <line class="cls-7" x1="139.69" y1="407.05" x2="139.7" y2="407.06"/>
    <polygon class="cls-6" points="138.75 407.7 140.64 406.42 140.65 406.43 138.75 407.7"/>
  </g>
  <path class="cls-3" d="M165,460.01c-10.97-16.9-19.3-34.76-25.09-53.09,14.4,12.74,27.32,27.61,38.3,44.51,10.97,16.9,19.3,34.76,25.07,53.1-14.39-12.75-27.31-27.62-38.28-44.52Z"/>
  <g>
    <line class="cls-4" x1="139.69" y1="407.05" x2="139.7" y2="407.06"/>
    <polygon class="cls-2" points="138.75 407.7 140.64 406.42 140.65 406.43 138.75 407.7"/>
  </g>
  <g>
    <line class="cls-9" x1="203.07" y1="504.67" x2="203.08" y2="504.68"/>
    <polygon class="cls-1" points="202.13 505.32 204.02 504.04 204.03 504.05 202.13 505.32"/>
  </g>
  <g>
    <path class="cls-5" d="M133.02,396.67c7.06,18.36,10.3,38.52,8.81,59.43-1.49,20.92-7.55,40.42-17.14,57.59l8.33-117.02Z"/>
    <path class="cls-10" d="M127.73,386.95c1.23,19.63-1.72,39.84-9.4,59.34-7.69,19.51-19.32,36.29-33.62,49.8l43.02-109.14Z"/>
    <path class="cls-11" d="M122.65,377.44c-3.11,19.42-10.43,38.49-22.21,55.82-11.79,17.34-26.82,31.16-43.74,41.2l65.95-97.02Z"/>
    <path class="cls-12" d="M115.62,369.82c-6.78,18.47-17.63,35.77-32.52,50.51-14.9,14.76-32.31,25.43-50.84,32.03l83.36-82.55Z"/>
    <path class="cls-13" d="M111.28,360.94c-9.72,17.1-23.25,32.39-40.36,44.5-17.12,12.11-36.04,19.79-55.4,23.27l95.76-67.77Z"/>
    <path class="cls-15" d="M105.27,351.75c-12.3,15.35-28.08,28.31-46.89,37.56-18.82,9.25-38.71,13.84-58.38,14.21l105.27-51.77Z"/>
    <path class="cls-21" d="M101.71,344.95c-13.59,10.6-29.65,18.45-47.55,22.53-17.91,4.08-35.79,3.98-52.63.32l100.18-22.85Z"/>
    <path class="cls-22" d="M98.05,340.12c-14.78,4.79-30.82,6.49-47.25,4.43-16.44-2.06-31.56-7.67-44.7-15.96l91.94,11.53Z"/>
  </g>
  <g>
    <path class="cls-23" d="M133.42,397.03c13.9,13.92,30.99,25.09,50.69,32.24,19.71,7.15,39.99,9.55,59.58,7.78l-110.28-40.02Z"/>
    <path class="cls-24" d="M126.69,388.25c17.43,9.12,37.09,14.64,58.03,15.56,20.95.92,41.01-2.87,59.17-10.44l-117.2-5.12Z"/>
    <path class="cls-14" d="M120.07,379.74c19.01,5.07,39.4,6.14,60.03,2.43,20.64-3.71,39.38-11.81,55.44-23.18l-115.46,20.75Z"/>
    <path class="cls-17" d="M115.97,370.22c19.63,1.32,39.84-1.55,59.38-9.15,19.54-7.61,36.38-19.16,49.95-33.4l-109.33,42.55Z"/>
    <path class="cls-16" d="M109.63,362.63c19.58-1.92,39.05-8.06,57.07-18.76,18.03-10.71,32.75-24.86,43.8-41.14l-100.87,59.89Z"/>
    <path class="cls-18" d="M103.68,353.41c19.03-4.99,37.29-14.13,53.39-27.55,16.11-13.42,28.4-29.73,36.74-47.54l-90.13,75.09Z"/>
    <path class="cls-19" d="M98.92,347.39c15.21-8.1,28.92-19.58,39.94-34.27,11.02-14.7,18.2-31.08,21.71-47.95l-61.64,82.21Z"/>
    <path class="cls-25" d="M96,342.08c10.39-11.55,18.47-25.51,23.28-41.35,4.81-15.85,5.84-31.95,3.61-47.32l-26.89,88.68Z"/>
  </g>
  <path class="cls-20" d="M152.37,427.29l-79.13-121.88-16.21-28.2c-22.7-39.49-35.48-84.43-36.97-129.95L15.25.04l1.3-.04,4.81,147.21c1.48,45.31,14.21,90.04,36.8,129.35l16.19,28.17,79.11,121.85-1.09.71Z"/>
</svg>